PathFileType	4	(X/Y/Z)	c:/Users/goper/Files/vsCode/490R/osim_files/C05/C05_SSWS_03.trc
DataRate	CameraRate	NumFrames	NumMarkers	Units                	OrigDataRate	OrigDataStartFrame	OrigNumFrames
250.00	250.00	5	36	mm	250.0	1541	2465
                Frame#	Time	LPSIS			LASIS			LTH1			LTH2			LTH3			LTH4			LLFE			LMFE			LSH1			LSH2			LSH3			LSH4			LLMAL			LMMAL			LCAL			LMTP5			LTOE			LMTP1			RPSIS			RASIS			RTH1			RTH2			RTH3			RTH4			RLFE			RMFE			RSH1			RSH2			RSH3			RSH4			RLMAL			RMMAL			RCAL			RMTP1			RTOE			RMTP5		
		X1	Y1	Z1	X2	Y2	Z2	X3	Y3	Z3	X4	Y4	Z4	X5	Y5	Z5	X6	Y6	Z6	X7	Y7	Z7	X8	Y8	Z8	X9	Y9	Z9	X10	Y10	Z10	X11	Y11	Z11	X12	Y12	Z12	X13	Y13	Z13	X14	Y14	Z14	X15	Y15	Z15	X16	Y16	Z16	X17	Y17	Z17	X18	Y18	Z18	X19	Y19	Z19	X20	Y20	Z20	X21	Y21	Z21	X22	Y22	Z22	X23	Y23	Z23	X24	Y24	Z24	X25	Y25	Z25	X26	Y26	Z26	X27	Y27	Z27	X28	Y28	Z28	X29	Y29	Z29	X30	Y30	Z30	X31	Y31	Z31	X32	Y32	Z32	X33	Y33	Z33	X34	Y34	Z34	X35	Y35	Z35	X36	Y36	Z36

1541	6.16000	-578.29333	1031.75232	305.49765	-775.96411	1004.66382	360.32483	-773.43726	685.19830	411.02176	-807.83478	632.41376	403.34665	-841.67395	719.87305	414.80280	-865.93201	663.47833	406.02829	-894.02319	559.42792	389.98212	-901.46283	548.21002	270.17328	-856.48163	368.78372	396.02991	-874.28540	327.75092	393.54700	-916.21191	385.38437	414.58725	-923.99744	342.53564	408.37860	-971.56573	117.43095	378.12421	-1007.46747	138.49319	299.72736	-935.12085	69.77189	316.48776	-1114.82507	97.90997	429.61011	-1149.40308	138.32283	372.11829	-1151.40442	116.74683	324.39154	-583.95215	1045.44495	197.97234	-776.86139	1008.24066	129.56296	-617.14709	673.92029	81.28615	-622.16107	612.95105	95.57432	-693.10071	674.28613	88.93394	-686.76508	613.10278	101.02731	0.00000	0.00000	0.00000	-644.31781	520.51080	117.03001	-532.23401	380.57831	106.66278	-526.86871	333.11102	114.14124	-591.25824	365.66165	112.69404	-578.26031	321.56891	120.19632	-490.78949	102.38804	170.53343	-513.55170	112.49829	255.03802	-424.22159	75.43943	219.15233	-641.06262	39.80556	240.66408	-661.30951	61.25597	191.49883	-608.70435	36.26943	128.80289
1542	6.16400	-583.06262	1030.90515	305.85040	-780.88531	1003.86353	360.35950	-775.96265	683.69684	410.93436	-809.88416	630.59131	403.45609	-844.32031	717.85376	415.01315	-868.09283	661.27899	406.62396	-896.66583	557.64490	390.31610	-903.84009	546.33191	270.29807	-863.67029	366.21890	395.63501	-881.41882	326.05569	393.92502	-921.76471	384.70068	415.00482	-931.02319	341.76791	408.42950	-983.48816	117.52413	377.87085	-1018.52039	139.53906	299.30539	-947.87097	69.09663	316.28497	-1127.35486	101.29494	428.74268	-1160.81201	142.50760	371.21844	-1162.97668	121.13074	323.55109	-588.39337	1044.78943	198.36394	-780.55139	1007.36847	129.22467	-619.88892	673.75732	81.33453	-624.55902	612.81641	95.60417	-695.84479	673.81787	88.94514	-689.09778	612.64331	101.05169	0.00000	0.00000	0.00000	-646.25281	520.25885	116.89410	-533.47223	380.78070	106.61523	-527.92749	333.35013	114.08411	-592.88263	365.50134	112.99653	-579.31158	321.54108	120.13646	-491.01346	102.60136	170.55266	-513.81226	112.69594	255.03084	-424.32202	75.69936	219.12378	-640.93488	39.55711	240.39175	-661.38147	61.19624	191.44263	-608.81232	36.18111	128.79295
1543	6.16800	-587.75824	1030.12280	306.13214	-785.71057	1003.02112	360.40396	-778.49554	682.26892	411.00818	-812.07104	628.84430	403.73090	-847.16992	715.90186	415.26746	-870.53247	659.14081	407.02661	-899.35077	555.98053	390.74948	-905.89545	544.42859	270.51392	-870.19055	364.12564	396.09341	-889.14856	324.30801	393.39001	-928.07111	383.77701	415.19434	-938.02661	341.02853	408.49643	-994.78986	117.87603	377.54102	-1029.18713	140.72861	298.74234	-959.96429	68.71561	316.00266	-1139.46680	104.58921	427.80740	-1171.87463	146.92772	370.35358	-1174.30835	125.56239	322.42203	-592.83240	1044.03870	198.68050	-784.93671	1006.61768	129.26068	-622.61572	673.63733	81.40056	-627.03101	612.62354	95.70883	-698.61566	673.38965	88.98544	-692.16479	611.95508	101.72140	0.00000	0.00000	0.00000	-648.24988	519.98370	116.77151	-534.76349	380.94849	106.63461	-528.95782	333.55420	114.13377	-593.69263	365.54385	112.41971	-580.35773	321.50549	120.06679	-491.21689	102.79764	170.56027	-514.03198	112.82485	255.03563	-424.44815	75.94145	219.11826	-640.98553	39.50547	240.34561	-661.47455	61.14763	191.40318	-608.84314	36.16329	128.76541
1544	6.17200	-592.52533	1029.31104	306.50180	-790.68213	1002.18457	360.41800	-781.22205	680.88556	411.10202	-814.31122	627.16003	404.12735	-850.12323	713.95856	415.50082	-872.95227	657.03656	407.49432	-902.22070	554.37769	391.26483	-907.94708	542.60809	270.80557	-876.49518	362.17105	396.65045	-895.72217	322.72440	394.53598	-934.02344	382.88959	415.36426	-944.91791	340.35529	408.57803	-1005.53357	118.37880	377.30746	-1039.22070	141.91339	298.28009	-971.79187	68.64513	315.60791	-1151.05078	107.81889	426.62009	-1182.32812	150.92255	369.13943	-1185.28650	129.93112	321.05582	-597.27216	1043.35486	199.09647	-789.30438	1005.89490	129.27879	-625.36920	673.51721	81.40977	-629.48651	612.42834	95.71920	-701.38556	672.84235	89.04907	-694.69562	611.47852	101.72883	0.00000	0.00000	0.00000	-650.29871	519.68042	116.66587	-536.13770	381.12595	106.63698	-530.23755	333.71033	114.07656	-595.44727	365.34485	112.81476	-581.52484	321.56723	119.93743	-491.42789	103.06077	170.54337	-514.27405	113.01000	254.98869	-424.55365	76.19836	219.11282	-641.18665	39.66951	240.49641	-661.56903	61.09818	191.37445	-608.86151	36.12619	128.75368
1545	6.17600	-597.28284	1028.44434	306.77890	-795.60474	1001.25317	360.43311	-784.07874	679.53271	411.31287	-816.65131	625.46313	404.58496	-853.16479	712.18225	415.86188	-876.15741	655.02570	408.41968	-905.33514	552.76831	392.00320	-909.97064	540.80829	271.12946	-882.66486	360.40811	397.25012	-902.95636	321.02823	395.25861	-940.03168	382.02216	415.54858	-951.50720	339.75098	408.74359	-1016.12335	118.83978	376.87762	-1048.93054	143.08931	297.69699	-982.74017	68.59361	315.20227	-1162.31360	110.86477	425.28906	-1192.38770	154.62622	367.82797	-1195.79834	134.12634	319.50385	-601.79364	1042.53760	199.41595	-793.50604	1005.11255	129.29565	-628.23053	673.29352	81.49361	-632.07922	612.18530	95.77110	-704.97455	672.97998	88.46126	-696.61945	611.18652	101.24962	0.00000	0.00000	0.00000	-652.50616	519.33453	116.64461	-537.55707	381.28134	106.66669	-531.36023	333.86255	114.13430	-596.40112	365.37411	112.33589	-582.66559	321.50317	119.90179	-491.64651	103.28029	170.53322	-514.50104	113.15820	254.98293	-424.70615	76.45426	219.11028	-641.01233	39.36049	240.24799	-661.64606	61.04514	191.36563	-608.88531	36.10772	128.75270
